<svg width="25.000000" height="20.000000" viewBox="0 0 25 20" fill="none" xmlns="http://www.w3.org/2000/svg" xmlns:xlink="http://www.w3.org/1999/xlink">
	<desc>
			Created with Pixso.
	</desc>
	<defs/>
	<path id="Vector" d="M6.55 15.7C5.37 15.7 4.41 16.66 4.41 17.85C4.41 19.03 5.37 20 6.55 20C7.74 20 8.7 19.03 8.7 17.85C8.7 16.66 7.74 15.7 6.55 15.7ZM6.55 19.04C5.89 19.04 5.36 18.51 5.36 17.85C5.36 17.19 5.89 16.66 6.55 16.66C7.21 16.66 7.74 17.19 7.74 17.85C7.74 18.51 7.21 19.04 6.55 19.04Z" fill="#181D19" fill-opacity="1.000000" fill-rule="nonzero"/>
	<path id="Vector" d="M15.61 15.7C14.42 15.7 13.46 16.66 13.46 17.85C13.46 19.03 14.42 20 15.61 20C16.79 20 17.75 19.03 17.75 17.85C17.75 16.66 16.79 15.7 15.61 15.7ZM15.61 19.04C14.95 19.04 14.42 18.51 14.42 17.85C14.42 17.19 14.95 16.66 15.61 16.66C16.27 16.66 16.8 17.19 16.8 17.85C16.8 18.51 16.27 19.04 15.61 19.04Z" fill="#181D19" fill-opacity="1.000000" fill-rule="nonzero"/>
	<path id="Vector" d="M20.45 3.19C20.35 3.08 20.21 3.01 20.07 3L4.55 2.78L4.12 1.47C3.82 0.6 3 0 2.07 0L0.47 0C0.21 0 0 0.21 0 0.47C0 0.74 0.21 0.95 0.47 0.95L2.07 0.95C2.59 0.96 3.04 1.29 3.21 1.78L6.24 10.91L6 11.46C5.74 12.15 5.82 12.92 6.22 13.53C6.61 14.14 7.28 14.51 8 14.54L17.28 14.54C17.54 14.54 17.75 14.32 17.75 14.06C17.75 13.8 17.54 13.58 17.28 13.58L8 13.58C7.6 13.57 7.22 13.36 7 13.01C6.79 12.67 6.75 12.25 6.88 11.87L7.07 11.44L17.11 10.39C18.21 10.27 19.12 9.47 19.38 8.39L20.52 3.59C20.57 3.46 20.54 3.3 20.45 3.19ZM18.45 8.17C18.29 8.87 17.7 9.38 16.99 9.43L7.07 10.46L4.86 3.74L19.47 3.95L18.45 8.17Z" fill="#181D19" fill-opacity="1.000000" fill-rule="nonzero"/>
	<circle id="Ellipse 7" cx="21.000000" cy="4.000000" r="4.000000" fill="#DC2825" fill-opacity="1.000000"/>
</svg>
