<svg width="100.000000" height="100.000000" viewBox="0 0 100 100" fill="none" xmlns="http://www.w3.org/2000/svg" xmlns:xlink="http://www.w3.org/1999/xlink">
	<desc>
			Created with Pixso.
	</desc>
	<defs>
		<clipPath id="clip711_165">
			<rect id="Icon" rx="-0.500000" width="99.000000" height="99.000000" transform="translate(0.500000 0.500000)" fill="white" fill-opacity="0"/>
		</clipPath>
	</defs>
	<rect id="Icon" rx="-0.500000" width="99.000000" height="99.000000" transform="translate(0.500000 0.500000)" fill="#FFFFFF" fill-opacity="0"/>
	<g clip-path="url(#clip711_165)">
		<path id="Vector" d="M84.37 4.02L84.37 95.97C84.37 98.19 82.57 100 80.34 100L12.65 100C10.43 100 8.62 98.19 8.62 95.97L8.62 4.02C8.62 1.8 10.43 0 12.65 0L29.3 0L29.3 5.82C29.3 6.93 30.2 7.83 31.31 7.83L61.88 7.83C62.99 7.83 63.89 6.93 63.89 5.82L63.89 0L80.34 0C82.57 0 84.37 1.8 84.37 4.02Z" fill="#FEB618" fill-opacity="1.000000" fill-rule="nonzero"/>
		<path id="Vector" d="M84.37 4.02L84.37 95.97C84.37 98.19 82.57 100 80.35 100L76.38 100C78.61 100 80.41 98.19 80.41 95.97L80.41 4.02C80.41 1.8 78.61 0 76.38 0L80.35 0C82.57 0 84.37 1.8 84.37 4.02Z" fill="#FB9927" fill-opacity="1.000000" fill-rule="nonzero"/>
		<path id="Vector" d="M84.37 22.91L84.37 45.66C82.64 46.54 80.69 47.03 78.62 47.03C71.59 47.03 65.88 41.32 65.88 34.29C65.88 27.25 71.59 21.55 78.62 21.55C80.69 21.55 82.64 22.04 84.37 22.91Z" fill="#FB9927" fill-opacity="1.000000" fill-rule="nonzero"/>
		<path id="Vector" d="M77.83 7.96L77.83 91.89C77.83 92.93 76.99 93.77 75.94 93.77L17.05 93.77C16 93.77 15.16 92.93 15.16 91.89L15.16 7.96C15.16 6.92 16 6.08 17.05 6.08L29.32 6.08C29.44 7.07 30.29 7.83 31.31 7.83L61.88 7.83C62.91 7.83 63.75 7.07 63.88 6.08L75.94 6.08C76.99 6.08 77.83 6.92 77.83 7.96Z" fill="#F8F3F1" fill-opacity="1.000000" fill-rule="nonzero"/>
		<path id="Vector" d="M26.88 6.08L26.88 11.64C26.88 12.75 27.78 13.65 28.89 13.65L30.03 13.65L30.03 16.35C30.03 18.92 32.13 21.02 34.71 21.02L58.29 21.02C60.86 21.02 62.96 18.92 62.96 16.35L62.96 13.65L64.1 13.65C65.21 13.65 66.11 12.75 66.11 11.64L66.11 6.08L26.88 6.08ZM59.94 16.35C59.94 17.26 59.2 18 58.29 18L34.71 18C33.79 18 33.05 17.26 33.05 16.35L33.05 13.65L59.94 13.65L59.94 16.35Z" fill="#EFE2DD" fill-opacity="1.000000" fill-rule="nonzero"/>
		<path id="Vector" d="M77.83 7.96L77.83 91.89C77.83 92.93 76.99 93.77 75.95 93.77L71.57 93.77C72.62 93.77 73.46 92.93 73.46 91.89L73.46 7.96C73.46 6.92 72.62 6.08 71.57 6.08L75.95 6.08C76.99 6.08 77.83 6.92 77.83 7.96Z" fill="#EFE2DD" fill-opacity="1.000000" fill-rule="nonzero"/>
		<path id="Vector" d="M70.86 28.23L22.13 28.23C21.3 28.23 20.62 27.55 20.62 26.72C20.62 25.89 21.3 25.21 22.13 25.21L70.86 25.21C71.7 25.21 72.37 25.89 72.37 26.72C72.37 27.55 71.7 28.23 70.86 28.23Z" fill="#EFE2DD" fill-opacity="1.000000" fill-rule="nonzero"/>
		<path id="Vector" d="M23.4 86.56C22.6 86.56 21.93 85.94 21.89 85.13C21.85 84.3 22.49 83.59 23.32 83.55C24.42 83.49 25.5 83.23 26.51 82.81C26.47 82.41 26.48 82 26.55 81.59C26.93 79.11 28.14 76.79 29.96 75.04C31.7 73.37 33.33 73.68 34.28 74.52C35.15 75.29 35.48 76.52 35.12 77.65C34.41 79.87 33.06 81.84 31.32 83.35C31.76 83.18 32.15 82.94 32.29 82.85C33.05 82.34 34.2 81.71 35.29 82.13C35.59 82.25 36.08 82.53 36.37 83.16C36.49 83.13 36.63 83.08 36.77 83.01C37.61 82.57 38.41 82.05 39.15 81.46C39.85 80.91 40.77 80.82 41.56 81.22C42.22 81.55 42.66 82.14 42.78 82.84C43.48 82.48 44.13 82.03 44.73 81.51C45.53 80.8 46.73 80.76 47.58 81.4C50.05 83.28 53.93 82.94 57.36 82.47C58.19 82.35 58.95 82.93 59.06 83.76C59.18 84.58 58.6 85.34 57.77 85.46C53.93 85.98 49.59 86.35 46.26 84.16C45.42 84.83 44.5 85.39 43.52 85.84C43.24 85.97 42.57 86.27 41.79 86.12C40.98 85.96 40.34 85.38 40.02 84.57C39.42 84.98 38.8 85.35 38.16 85.68C37.74 85.9 36.27 86.57 34.97 85.99C34.61 85.83 34.3 85.59 34.06 85.29C34.03 85.31 33.99 85.34 33.95 85.36C31.65 86.89 29.33 86.93 27.84 85.54C26.47 86.12 24.99 86.48 23.48 86.56C23.45 86.56 23.42 86.56 23.4 86.56ZM39.8 83.23C39.8 83.24 39.8 83.24 39.8 83.24C39.8 83.24 39.8 83.23 39.8 83.23ZM32.09 77.18C32.08 77.19 32.07 77.2 32.05 77.22C31.09 78.14 30.36 79.27 29.92 80.5C30.87 79.55 31.62 78.42 32.09 77.18Z" fill="#EFE2DD" fill-opacity="1.000000" fill-rule="nonzero"/>
		<path id="Vector" d="M38.31 48.42L38.1 48.42C37.27 48.42 36.59 47.75 36.59 46.91C36.59 46.08 37.27 45.4 38.1 45.4L38.31 45.4C39.14 45.4 39.81 46.08 39.81 46.91C39.81 47.75 39.14 48.42 38.31 48.42Z" fill="#EFE2DD" fill-opacity="1.000000" fill-rule="nonzero"/>
		<path id="Vector" d="M43.08 48.42L42.88 48.42C42.04 48.42 41.37 47.75 41.37 46.91C41.37 46.08 42.04 45.4 42.88 45.4L43.08 45.4C43.92 45.4 44.59 46.08 44.59 46.91C44.59 47.75 43.92 48.42 43.08 48.42Z" fill="#EFE2DD" fill-opacity="1.000000" fill-rule="nonzero"/>
		<path id="Vector" d="M47.86 48.42L47.65 48.42C46.82 48.42 46.15 47.75 46.15 46.91C46.15 46.08 46.82 45.4 47.65 45.4L47.86 45.4C48.69 45.4 49.37 46.08 49.37 46.91C49.37 47.75 48.69 48.42 47.86 48.42Z" fill="#EFE2DD" fill-opacity="1.000000" fill-rule="nonzero"/>
		<path id="Vector" d="M52.64 48.42L52.43 48.42C51.6 48.42 50.92 47.75 50.92 46.91C50.92 46.08 51.6 45.4 52.43 45.4L52.64 45.4C53.47 45.4 54.14 46.08 54.14 46.91C54.14 47.75 53.47 48.42 52.64 48.42Z" fill="#EFE2DD" fill-opacity="1.000000" fill-rule="nonzero"/>
		<path id="Vector" d="M70.42 42.5L37.55 42.5C36.72 42.5 36.05 41.83 36.05 40.99C36.05 40.16 36.72 39.49 37.55 39.49L70.42 39.49C71.25 39.49 71.93 40.16 71.93 40.99C71.93 41.83 71.25 42.5 70.42 42.5Z" fill="#EFE2DD" fill-opacity="1.000000" fill-rule="nonzero"/>
		<path id="Vector" d="M46.41 36.84L37.55 36.84C36.72 36.84 36.05 36.16 36.05 35.33C36.05 34.49 36.72 33.82 37.55 33.82L46.41 33.82C47.25 33.82 47.92 34.49 47.92 35.33C47.92 36.16 47.25 36.84 46.41 36.84Z" fill="#EFE2DD" fill-opacity="1.000000" fill-rule="nonzero"/>
		<path id="Vector" d="M38.31 68.59L38.1 68.59C37.27 68.59 36.59 67.91 36.59 67.08C36.59 66.24 37.27 65.57 38.1 65.57L38.31 65.57C39.14 65.57 39.81 66.24 39.81 67.08C39.81 67.91 39.14 68.59 38.31 68.59Z" fill="#EFE2DD" fill-opacity="1.000000" fill-rule="nonzero"/>
		<path id="Vector" d="M43.08 68.59L42.88 68.59C42.04 68.59 41.37 67.91 41.37 67.08C41.37 66.24 42.04 65.57 42.88 65.57L43.08 65.57C43.92 65.57 44.59 66.24 44.59 67.08C44.59 67.91 43.92 68.59 43.08 68.59Z" fill="#EFE2DD" fill-opacity="1.000000" fill-rule="nonzero"/>
		<path id="Vector" d="M47.86 68.59L47.65 68.59C46.82 68.59 46.15 67.91 46.15 67.08C46.15 66.24 46.82 65.57 47.65 65.57L47.86 65.57C48.69 65.57 49.37 66.24 49.37 67.08C49.37 67.91 48.69 68.59 47.86 68.59Z" fill="#EFE2DD" fill-opacity="1.000000" fill-rule="nonzero"/>
		<path id="Vector" d="M52.64 68.59L52.43 68.59C51.6 68.59 50.92 67.91 50.92 67.08C50.92 66.24 51.6 65.57 52.43 65.57L52.64 65.57C53.47 65.57 54.14 66.24 54.14 67.08C54.14 67.91 53.47 68.59 52.64 68.59Z" fill="#EFE2DD" fill-opacity="1.000000" fill-rule="nonzero"/>
		<path id="Vector" d="M70.42 62.67L37.55 62.67C36.72 62.67 36.05 61.99 36.05 61.16C36.05 60.32 36.72 59.65 37.55 59.65L70.42 59.65C71.25 59.65 71.93 60.32 71.93 61.16C71.93 61.99 71.25 62.67 70.42 62.67Z" fill="#EFE2DD" fill-opacity="1.000000" fill-rule="nonzero"/>
		<path id="Vector" d="M46.41 57L37.55 57C36.72 57 36.05 56.32 36.05 55.49C36.05 54.66 36.72 53.98 37.55 53.98L46.41 53.98C47.25 53.98 47.92 54.66 47.92 55.49C47.92 56.32 47.25 57 46.41 57Z" fill="#EFE2DD" fill-opacity="1.000000" fill-rule="nonzero"/>
		<path id="Vector" d="M58.29 19.21L34.71 19.21C32.13 19.21 30.03 17.11 30.03 14.54L30.03 9.42C30.03 8.59 30.71 7.92 31.54 7.92C32.38 7.92 33.05 8.59 33.05 9.42L33.05 14.54C33.05 15.45 33.79 16.19 34.71 16.19L58.29 16.19C59.2 16.19 59.94 15.45 59.94 14.54L59.94 9.42C59.94 8.59 60.62 7.92 61.45 7.92C62.28 7.92 62.96 8.59 62.96 9.42L62.96 14.54C62.96 17.11 60.86 19.21 58.29 19.21Z" fill="#FCA62F" fill-opacity="1.000000" fill-rule="nonzero"/>
		<path id="Vector" d="M64.1 10.63L28.89 10.63C27.78 10.63 26.88 9.73 26.88 8.62L26.88 0L66.11 0L66.11 8.62C66.11 9.73 65.21 10.63 64.1 10.63Z" fill="#12C65A" fill-opacity="1.000000" fill-rule="nonzero"/>
		<path id="Vector" d="M66.11 0L66.11 8.62C66.11 9.73 65.21 10.63 64.1 10.63L60.14 10.63C61.25 10.63 62.15 9.73 62.15 8.62L62.15 0L66.11 0Z" fill="#0FAD4E" fill-opacity="1.000000" fill-rule="nonzero"/>
		<path id="Vector" d="M34.05 6.82L33.86 6.82C33.02 6.82 32.35 6.15 32.35 5.31C32.35 4.48 33.02 3.8 33.86 3.8L34.05 3.8C34.89 3.8 35.56 4.48 35.56 5.31C35.56 6.15 34.89 6.82 34.05 6.82Z" fill="#FFFFFF" fill-opacity="1.000000" fill-rule="nonzero"/>
		<path id="Vector" d="M59.14 6.82L58.94 6.82C58.11 6.82 57.43 6.15 57.43 5.31C57.43 4.48 58.11 3.8 58.94 3.8L59.14 3.8C59.97 3.8 60.64 4.48 60.64 5.31C60.64 6.15 59.97 6.82 59.14 6.82Z" fill="#FFFFFF" fill-opacity="1.000000" fill-rule="nonzero"/>
		<path id="Vector" d="M91.37 30.75C91.37 37.78 85.66 43.49 78.62 43.49C71.59 43.49 65.88 37.78 65.88 30.75C65.88 23.71 71.59 18 78.62 18C85.66 18 91.37 23.71 91.37 30.75Z" fill="#12C65A" fill-opacity="1.000000" fill-rule="evenodd"/>
		<path id="Vector" d="M91.37 30.75C91.37 37.78 85.66 43.49 78.62 43.49C77.96 43.49 77.3 43.44 76.66 43.34C82.77 42.4 87.45 37.12 87.45 30.75C87.45 24.37 82.77 19.1 76.66 18.15C77.3 18.05 77.96 18 78.62 18C85.66 18 91.37 23.71 91.37 30.75Z" fill="#0FAD4E" fill-opacity="1.000000" fill-rule="nonzero"/>
		<path id="Vector" d="M75.84 36.28C75.46 36.28 75.07 36.13 74.78 35.84L72.43 33.49C71.84 32.9 71.84 31.94 72.43 31.35C73.02 30.77 73.97 30.77 74.56 31.35L75.84 32.64L82.83 25.65C83.41 25.06 84.37 25.06 84.96 25.65C85.55 26.24 85.55 27.2 84.96 27.79L76.91 35.84C76.62 36.13 76.23 36.28 75.84 36.28Z" fill="#FFFFFF" fill-opacity="1.000000" fill-rule="nonzero"/>
		<path id="Vector" d="M29.87 43.18L24.04 43.18C23.48 43.18 23.03 42.72 23.03 42.17L23.03 36.33C23.03 35.78 23.48 35.33 24.04 35.33L29.87 35.33C30.43 35.33 30.88 35.78 30.88 36.33L30.88 42.17C30.88 42.72 30.43 43.18 29.87 43.18Z" fill="#B5CCBE" fill-opacity="1.000000" fill-rule="nonzero"/>
		<path id="Vector" d="M29.87 63.34L24.04 63.34C23.48 63.34 23.03 62.89 23.03 62.33L23.03 56.5C23.03 55.94 23.48 55.49 24.04 55.49L29.87 55.49C30.43 55.49 30.88 55.94 30.88 56.5L30.88 62.33C30.88 62.89 30.43 63.34 29.87 63.34Z" fill="#B5CCBE" fill-opacity="1.000000" fill-rule="nonzero"/>
	</g>
</svg>
