<svg width="100.000000" height="100.000000" viewBox="0 0 100 100" fill="none" xmlns="http://www.w3.org/2000/svg" xmlns:xlink="http://www.w3.org/1999/xlink">
	<desc>
			Created with Pixso.
	</desc>
	<defs>
		<clipPath id="clip711_199">
			<rect id="Icon" rx="-0.500000" width="99.000000" height="99.000000" transform="translate(0.500000 0.500000)" fill="white" fill-opacity="0"/>
		</clipPath>
	</defs>
	<rect id="Icon" rx="-0.500000" width="99.000000" height="99.000000" transform="translate(0.500000 0.500000)" fill="#FFFFFF" fill-opacity="0"/>
	<g clip-path="url(#clip711_199)">
		<path id="Vector" d="M99.97 92.9L92.12 49.62C92.04 49.19 91.77 48.81 91.39 48.6L71.61 37.6C71.35 37.46 71.07 37.4 70.78 37.42L74.38 83.83L74.26 83.89L97.93 94.5C98.12 94.59 98.32 94.63 98.53 94.63C98.85 94.63 99.17 94.52 99.43 94.32C99.86 93.98 100.07 93.44 99.97 92.9Z" fill="#28A248" fill-opacity="1.000000" fill-rule="nonzero"/>
		<path id="Vector" d="M50 48.12L29.77 37.58C29.53 37.46 29.26 37.4 29 37.42C29.07 37.42 29.14 37.42 29.21 37.42L25.61 83.83L49.39 94.5C49.59 94.59 49.79 94.63 50 94.63L50 48.12Z" fill="#32BD56" fill-opacity="1.000000" fill-rule="nonzero"/>
		<path id="Vector" d="M29.21 37.42C28.92 37.4 28.64 37.46 28.38 37.6L8.6 48.6C8.22 48.81 7.95 49.19 7.87 49.62L0.02 92.9C-0.08 93.44 0.13 93.98 0.56 94.32C0.82 94.52 1.14 94.63 1.46 94.63C1.67 94.63 1.87 94.59 2.06 94.5L25.6 83.94L29.21 37.42Z" fill="#56D777" fill-opacity="1.000000" fill-rule="nonzero"/>
		<path id="Vector" d="M70.78 37.42C70.59 37.44 70.4 37.49 70.22 37.58L50 48.12L50 94.63C50 94.63 50 94.63 50 94.63C50.2 94.63 50.4 94.59 50.6 94.5L74.38 83.83L70.78 37.42Z" fill="#2FB652" fill-opacity="1.000000" fill-rule="nonzero"/>
		<path id="Vector" d="M5.49 62.74L3.9 71.53L27.53 59.05L28.08 51.97L28.17 50.8L5.49 62.74Z" fill="#FFDB56" fill-opacity="1.000000" fill-rule="nonzero"/>
		<path id="Vector" d="M27.74 56.3L27.53 59.05L3.9 71.53L0.02 92.9C-0.08 93.44 0.13 93.98 0.56 94.32C0.82 94.52 1.14 94.63 1.46 94.63C1.67 94.63 1.87 94.59 2.06 94.5L25.6 83.94L27.74 56.3Z" fill="#A8EEFC" fill-opacity="1.000000" fill-rule="nonzero"/>
		<path id="Vector" d="M50 53.92L28.17 50.8L27.53 59.05L50 93.16L50 80.76L36.59 59.65L50 61.25L50 53.92Z" fill="#FEB618" fill-opacity="1.000000" fill-rule="nonzero"/>
		<path id="Vector" d="M89.83 47.73L80.33 42.45L71.34 44.55L71.45 46L71.89 51.73L89.83 47.73Z" fill="#FEB618" fill-opacity="1.000000" fill-rule="nonzero"/>
		<path id="Vector" d="M72.69 62.02L71.84 51.04L71.34 44.55L50 53.92L50 61.25L63.94 55.19L72.69 62.02Z" fill="#FFDB56" fill-opacity="1.000000" fill-rule="nonzero"/>
		<path id="Vector" d="M99.97 92.9L98 82.03L71.89 51.73L72.69 62.02L99.46 94.29C99.87 93.95 100.07 93.42 99.97 92.9Z" fill="#FEB618" fill-opacity="1.000000" fill-rule="nonzero"/>
		<path id="Vector" d="M50.09 5.36C38.77 5.36 29.56 14.56 29.56 25.87C29.56 32.87 32.88 40.38 39.43 48.2C44.24 53.95 48.99 57.64 49.19 57.79C49.46 58 49.77 58.1 50.09 58.1C50.41 58.1 50.72 58 50.99 57.79C51.19 57.64 55.93 53.95 60.75 48.2C67.3 40.38 70.62 32.87 70.62 25.87C70.62 14.56 61.41 5.36 50.09 5.36ZM57.69 25.87C57.69 30.07 54.29 33.47 50.09 33.47C45.89 33.47 42.49 30.07 42.49 25.87C42.49 21.68 45.89 18.28 50.09 18.28C54.29 18.28 57.69 21.68 57.69 25.87Z" fill="#FF4415" fill-opacity="1.000000" fill-rule="nonzero"/>
		<path id="Vector" d="M50.09 5.36C49.19 5.36 48.31 5.42 47.44 5.53C57.52 6.83 65.32 15.46 65.32 25.87C65.32 32.87 62 40.38 55.45 48.2C52.36 51.9 49.29 54.74 47.44 56.34C48.47 57.23 49.12 57.74 49.19 57.79C49.46 58 49.77 58.1 50.09 58.1C50.41 58.1 50.72 58 50.99 57.79C51.19 57.64 55.93 53.95 60.75 48.2C67.3 40.38 70.62 32.87 70.62 25.87C70.62 14.56 61.41 5.36 50.09 5.36Z" fill="#E13E15" fill-opacity="1.000000" fill-rule="nonzero"/>
		<path id="Vector" d="M50.6 94.5L59.44 90.53L50 80.76L50 94.63C50 94.63 50 94.63 50 94.63C50.2 94.63 50.4 94.59 50.6 94.5Z" fill="#FFBF33" fill-opacity="1.000000" fill-rule="nonzero"/>
		<path id="Vector" d="M92.12 49.62C92.04 49.19 91.77 48.81 91.38 48.6L89.83 47.73L71.89 51.73L98 82.03L92.12 49.62Z" fill="#1EA4E9" fill-opacity="1.000000" fill-rule="nonzero"/>
		<path id="Vector" d="M49.99 94.63L49.99 93.16L27.53 59.05L25.61 83.83L49.39 94.5C49.59 94.59 49.79 94.63 49.99 94.63Z" fill="#1EA4E9" fill-opacity="1.000000" fill-rule="nonzero"/>
	</g>
</svg>
