<svg width="128.569946" height="100.000000" viewBox="0 0 128.57 100" fill="none" xmlns="http://www.w3.org/2000/svg" xmlns:xlink="http://www.w3.org/1999/xlink">
	<desc>
			Created with Pixso.
	</desc>
	<defs/>
	<path id="Vector" d="M1.29 97.77C1.89 98.52 2.66 99.11 3.54 99.49C4.41 99.88 5.37 100.05 6.32 99.98C7.28 99.92 8.2 99.62 9.02 99.12C9.83 98.63 10.51 97.94 11.01 97.12L19.92 82.25L20.05 82.18C23.47 80.12 27.31 78.85 31.29 78.46C35.27 78.07 39.28 78.56 43.05 79.9L43.05 79.9C55.36 84.3 68.79 84.44 81.19 80.31L81.19 80.31C89.64 77.49 97.26 72.65 103.4 66.21C109.54 59.76 114.01 51.91 116.41 43.34L128.57 0L114.67 7.9C107.86 11.77 100.33 14.2 92.54 15.02C84.76 15.85 76.89 15.06 69.42 12.7L69.42 12.7C63.72 10.9 57.67 10.5 51.79 11.54C45.9 12.58 40.36 15.03 35.62 18.67L35.62 18.67C31.39 21.93 27.91 26.05 25.42 30.77C22.93 35.5 21.49 40.7 21.2 46.03L20.23 63.37C20.03 67.05 19.07 70.65 17.42 73.96L15.49 77.82L2.02 89.61C0.87 90.61 0.15 92.02 0.02 93.54C-0.12 95.06 0.34 96.58 1.29 97.77Z" fill="#A0CC00" fill-opacity="1.000000" fill-rule="nonzero"/>
	<path id="Vector" d="M68.59 66.86C68.25 67.28 67.76 67.54 67.22 67.61C66.69 67.67 66.15 67.53 65.71 67.21C61.95 64.47 57.62 62.61 53.05 61.77C48.47 60.92 43.76 61.12 39.28 62.34L29.39 65.04C29.12 65.11 28.84 65.13 28.56 65.09C28.29 65.06 28.02 64.97 27.78 64.83C27.54 64.69 27.32 64.51 27.15 64.29C26.98 64.07 26.86 63.82 26.78 63.55L26.73 63.36C26.59 62.82 26.66 62.24 26.94 61.75C27.22 61.26 27.68 60.91 28.22 60.76L38.11 58.07C43.24 56.67 48.63 56.44 53.86 57.41C59.1 58.37 64.05 60.51 68.35 63.65C68.58 63.82 68.78 64.04 68.92 64.29C69.07 64.54 69.16 64.81 69.2 65.1C69.23 65.39 69.21 65.68 69.12 65.96C69.04 66.23 68.9 66.49 68.72 66.71L68.59 66.86Z" fill="#85B200" fill-opacity="1.000000" fill-rule="nonzero"/>
	<path id="Vector" d="M93.02 51.33C92.73 51.8 92.27 52.13 91.74 52.27C91.22 52.4 90.66 52.33 90.18 52.06C79.62 46.01 67.21 44 55.28 46.4L48.54 47.75C48.49 47.76 48.45 47.77 48.41 47.78L42.09 49.48C41.54 49.63 40.96 49.55 40.48 49.27C39.99 48.99 39.63 48.53 39.49 47.98L39.44 47.8C39.37 47.53 39.35 47.25 39.38 46.97C39.42 46.69 39.51 46.43 39.65 46.19C39.79 45.94 39.97 45.73 40.19 45.56C40.41 45.39 40.67 45.27 40.94 45.2L47.33 43.48L47.6 43.42L54.41 42.06C67.38 39.44 80.87 41.62 92.36 48.2C92.61 48.34 92.83 48.53 93 48.75C93.18 48.98 93.3 49.24 93.37 49.52C93.44 49.8 93.46 50.09 93.41 50.37C93.37 50.65 93.27 50.93 93.12 51.17L93.02 51.33Z" fill="#85B200" fill-opacity="1.000000" fill-rule="nonzero"/>
	<path id="Vector" d="M99.53 41.53C97.21 41.53 94.89 41.36 92.6 41.03L86.13 40.11L73.52 38.2C72.96 38.12 72.46 37.82 72.13 37.37C71.79 36.91 71.65 36.35 71.74 35.79L71.76 35.6C71.81 35.32 71.9 35.06 72.05 34.82C72.19 34.58 72.38 34.37 72.6 34.21C72.83 34.04 73.08 33.92 73.35 33.86C73.62 33.79 73.9 33.78 74.18 33.82L86.77 35.72L93.22 36.64C98.25 37.36 103.36 37.22 108.33 36.2C108.87 36.1 109.42 36.2 109.88 36.49C110.33 36.79 110.66 37.24 110.79 37.77L110.84 37.96C110.91 38.24 110.92 38.53 110.87 38.81C110.83 39.09 110.73 39.37 110.57 39.61C110.42 39.85 110.22 40.06 109.98 40.22C109.74 40.39 109.47 40.5 109.19 40.55C106.01 41.2 102.78 41.53 99.53 41.53Z" fill="#85B200" fill-opacity="1.000000" fill-rule="nonzero"/>
	<path id="Vector" d="M34.6 51.27C34.13 51.58 33.55 51.69 33 51.57C32.45 51.46 31.97 51.13 31.66 50.66L30.84 49.41C28.46 45.87 27.55 41.55 28.3 37.35C28.36 37.05 28.48 36.77 28.65 36.52C28.82 36.27 29.05 36.06 29.31 35.9C29.57 35.75 29.86 35.65 30.17 35.62C30.47 35.58 30.78 35.62 31.06 35.71L31.25 35.77C31.74 35.94 32.15 36.27 32.4 36.72C32.66 37.16 32.75 37.68 32.66 38.18C32.13 41.24 32.8 44.38 34.53 46.95L35.07 47.77L35.37 48.23C35.52 48.46 35.63 48.72 35.68 48.99C35.73 49.27 35.73 49.55 35.68 49.82C35.62 50.09 35.51 50.35 35.35 50.58C35.2 50.81 35 51.01 34.76 51.16L34.6 51.27Z" fill="#85B200" fill-opacity="1.000000" fill-rule="nonzero"/>
	<path id="Vector" d="M51.06 43.21L50.87 43.21C50.3 43.21 49.77 42.98 49.37 42.59C48.97 42.19 48.75 41.65 48.75 41.09L48.75 32.6C48.74 27.73 49.98 22.95 52.35 18.69C52.49 18.44 52.69 18.21 52.92 18.03C53.16 17.85 53.42 17.73 53.71 17.66C53.99 17.59 54.29 17.58 54.58 17.63C54.87 17.68 55.14 17.79 55.39 17.95L55.55 18.06C56 18.36 56.31 18.81 56.43 19.33C56.56 19.85 56.48 20.4 56.22 20.87C54.22 24.46 53.18 28.5 53.18 32.6L53.18 41.09C53.18 41.65 52.96 42.19 52.56 42.59C52.16 42.98 51.62 43.21 51.06 43.21Z" fill="#85B200" fill-opacity="1.000000" fill-rule="nonzero"/>
	<path id="Vector" d="M67.68 34.64L67.49 34.58C67.23 34.49 66.99 34.35 66.78 34.17C66.56 33.98 66.39 33.76 66.27 33.51C66.14 33.26 66.07 32.99 66.05 32.71C66.03 32.44 66.06 32.16 66.15 31.89L66.6 30.56C67.95 26.53 70.83 23.18 74.61 21.24C74.88 21.1 75.18 21.02 75.49 21.01C75.79 20.99 76.1 21.05 76.38 21.16C76.66 21.28 76.92 21.45 77.13 21.68C77.34 21.9 77.49 22.17 77.59 22.46L77.65 22.64C77.81 23.12 77.79 23.65 77.59 24.12C77.4 24.59 77.04 24.98 76.58 25.21C73.85 26.63 71.78 29.05 70.8 31.96L70.36 33.3C70.18 33.83 69.8 34.27 69.3 34.52C68.79 34.77 68.21 34.81 67.68 34.64Z" fill="#85B200" fill-opacity="1.000000" fill-rule="nonzero"/>
	<path id="Vector" d="M128.57 0L114.87 19.07C110.19 25.59 104.02 30.9 96.88 34.56C89.75 38.22 81.84 40.13 73.81 40.13C65.09 40.13 56.51 42.39 48.91 46.69C41.32 50.99 34.97 57.18 30.48 64.67L19.92 82.25L11.01 97.12C10.57 97.85 9.97 98.48 9.27 98.96C8.56 99.45 7.75 99.77 6.91 99.91C6.07 100.06 5.2 100.01 4.37 99.79C3.55 99.57 2.78 99.16 2.12 98.62C1.46 98.07 0.93 97.38 0.57 96.61C0.2 95.83 0.01 94.99 0 94.13C-0.01 93.28 0.16 92.43 0.51 91.65C0.86 90.87 1.38 90.17 2.02 89.6L15.49 77.82L24.68 60.28C29.26 51.53 36.16 44.2 44.61 39.08C53.06 33.97 62.76 31.26 72.64 31.26C85.82 31.26 98.55 26.45 108.44 17.74L128.57 0Z" fill="#85B200" fill-opacity="1.000000" fill-rule="nonzero"/>
	<path id="Vector" d="M19.92 82.25L11.01 97.12C10.57 97.85 9.97 98.48 9.27 98.96C8.56 99.45 7.75 99.77 6.91 99.91C6.07 100.06 5.2 100.01 4.37 99.79C3.55 99.57 2.78 99.16 2.12 98.62C1.46 98.07 0.93 97.38 0.57 96.61C0.2 95.83 0.01 94.99 0 94.13C-0.01 93.28 0.16 92.43 0.51 91.65C0.86 90.87 1.38 90.17 2.02 89.6L15.49 77.82L19.92 82.25Z" fill="#719600" fill-opacity="1.000000" fill-rule="nonzero"/>
</svg>
