<svg width="20.501953" height="20.502197" viewBox="0 0 20.502 20.5022" fill="none" xmlns="http://www.w3.org/2000/svg" xmlns:xlink="http://www.w3.org/1999/xlink">
	<desc>
			Created with Pixso.
	</desc>
	<defs/>
	<path id="Oval" d="M9.08 18.16C14.09 18.16 18.16 14.09 18.16 9.08C18.16 4.06 14.09 0 9.08 0C4.06 0 0 4.06 0 9.08C0 14.09 4.06 18.16 9.08 18.16Z" fill="#D8D8D8" fill-opacity="0" fill-rule="evenodd"/>
	<path id="Oval" d="M18.16 9.08C18.16 14.09 14.09 18.16 9.08 18.16C4.06 18.16 0 14.09 0 9.08C0 4.06 4.06 0 9.08 0C14.09 0 18.16 4.06 18.16 9.08ZM16.96 7.28Q17.16 8.15 17.16 9.08Q17.16 10 16.96 10.87Q16.8 11.56 16.52 12.22Q16.24 12.9 15.84 13.5Q15.39 14.19 14.79 14.79Q14.19 15.39 13.5 15.84Q12.9 16.24 12.22 16.52Q11.56 16.8 10.87 16.96Q10 17.16 9.08 17.16Q8.15 17.16 7.28 16.96Q6.59 16.8 5.93 16.52Q5.26 16.24 4.65 15.84Q3.96 15.39 3.36 14.79Q2.76 14.19 2.31 13.5Q1.92 12.9 1.63 12.22Q1.35 11.56 1.19 10.87Q1 10 1 9.08Q1 8.15 1.19 7.28Q1.35 6.59 1.63 5.93Q1.92 5.26 2.31 4.65Q2.76 3.96 3.36 3.36Q3.96 2.76 4.65 2.31Q5.26 1.92 5.93 1.63Q6.59 1.35 7.28 1.19Q8.15 1 9.08 1Q10 1 10.87 1.19Q11.56 1.35 12.22 1.63Q12.9 1.92 13.5 2.31Q14.19 2.76 14.79 3.36Q15.39 3.96 15.84 4.65Q16.24 5.26 16.52 5.93Q16.8 6.59 16.96 7.28Z" fill="#181D19" fill-opacity="1.000000" fill-rule="evenodd"/>
	<path id="Path 4" d="M20.32 19.64L20.35 19.64C20.55 19.84 20.55 20.15 20.35 20.35C20.15 20.55 19.84 20.55 19.64 20.35L19.64 20.32L20.32 19.64ZM14.9 15.58L14.88 15.58C14.68 15.38 14.68 15.07 14.88 14.88C15.07 14.68 15.38 14.68 15.58 14.88L15.58 14.9L14.9 15.58Z" fill="#D8D8D8" fill-opacity="0" fill-rule="nonzero"/>
	<path id="Path 4" d="M20 20L15.23 15.23" stroke="#181D19" stroke-opacity="1.000000" stroke-width="1.000000" stroke-linecap="round"/>
</svg>
